<?xml version="1.0" encoding="utf-8"?>
<!-- Generator: Adobe Illustrator 18.1.1, SVG Export Plug-In . SVG Version: 6.00 Build 0)  -->
<!DOCTYPE svg PUBLIC "-//W3C//DTD SVG 1.1//EN" "http://www.w3.org/Graphics/SVG/1.1/DTD/svg11.dtd">
<svg version="1.1" id="Livello_1" xmlns="http://www.w3.org/2000/svg" xmlns:xlink="http://www.w3.org/1999/xlink" x="0px" y="0px"
	 viewBox="0 0 60 56.7" enable-background="new 0 0 60 56.7" xml:space="preserve">
<rect x="-55.6" y="27.4" fill="#7A1717" width="19.2" height="1.8"/>
<rect x="-47" y="18.8" fill="#7A1717" width="1.8" height="19.2"/>
<rect x="-45.2" y="38.2" fill="#FFFFFF" width="2.1" height="9.6"/>
<path fill="#FFFFFF" d="M-40.8,38.7v2.2c2.6,1.3,4.4,3.9,4.4,7c0,4.3-3.5,7.7-7.7,7.7s-7.7-3.5-7.7-7.7c0-3.1,1.8-5.7,4.4-7v-2.2
	c-3.7,1.4-6.4,4.9-6.4,9.1c0,5.4,4.4,9.7,9.7,9.7s9.7-4.4,9.7-9.7C-34.4,43.6-37,40.1-40.8,38.7z"/>
<g>
	<path fill="#939393" d="M48.3,50.6H11.7c-2.2,0-4-1.8-4-4V10.1c0-2.2,1.8-4,4-4h36.5c2.2,0,4,1.8,4,4v36.5
		C52.3,48.8,50.5,50.6,48.3,50.6z M11.7,8.1c-1.1,0-2,0.9-2,2v36.5c0,1.1,0.9,2,2,2h36.5c1.1,0,2-0.9,2-2V10.1c0-1.1-0.9-2-2-2H11.7
		z"/>
</g>
<g>
	<rect x="16.1" y="15.4" fill="#939393" width="27.8" height="2"/>
</g>
<g>
	<rect x="16.1" y="23.4" fill="#939393" width="27.8" height="2"/>
</g>
<g>
	<rect x="16.1" y="31.3" fill="#939393" width="27.8" height="2"/>
</g>
<g>
	<rect x="16.1" y="39.3" fill="#939393" width="27.8" height="2"/>
</g>
</svg>
