<?xml version="1.0" encoding="utf-8"?>
<!-- Generator: Adobe Illustrator 18.1.1, SVG Export Plug-In . SVG Version: 6.00 Build 0)  -->
<!DOCTYPE svg PUBLIC "-//W3C//DTD SVG 1.1//EN" "http://www.w3.org/Graphics/SVG/1.1/DTD/svg11.dtd">
<svg version="1.1" id="Livello_1" xmlns="http://www.w3.org/2000/svg" xmlns:xlink="http://www.w3.org/1999/xlink" x="0px" y="0px"
	 viewBox="0 0 60 56.7" enable-background="new 0 0 60 56.7" xml:space="preserve">
<rect x="-55.6" y="27.4" fill="#7A1717" width="19.2" height="1.8"/>
<rect x="-47" y="18.8" fill="#7A1717" width="1.8" height="19.2"/>
<rect x="28.9" y="18.8" fill="#FFFFFF" width="2.1" height="9.6"/>
<path fill="#FFFFFF" d="M33.4,19.3v2.2c2.6,1.3,4.4,3.9,4.4,7c0,4.3-3.5,7.7-7.7,7.7s-7.7-3.5-7.7-7.7c0-3.1,1.8-5.7,4.4-7v-2.2
	c-3.7,1.4-6.4,4.9-6.4,9.1c0,5.4,4.4,9.7,9.7,9.7s9.7-4.4,9.7-9.7C39.7,24.3,37.1,20.7,33.4,19.3z"/>
</svg>
