<?xml version="1.0" encoding="utf-8"?>
<!-- Generator: Adobe Illustrator 18.1.1, SVG Export Plug-In . SVG Version: 6.00 Build 0)  -->
<!DOCTYPE svg PUBLIC "-//W3C//DTD SVG 1.1//EN" "http://www.w3.org/Graphics/SVG/1.1/DTD/svg11.dtd">
<svg version="1.1" id="Livello_1" xmlns="http://www.w3.org/2000/svg" xmlns:xlink="http://www.w3.org/1999/xlink" x="0px" y="0px"
	 viewBox="70 -12.8 155 40" enable-background="new 70 -12.8 155 40" xml:space="preserve">
<g>
	<g>
		<path fill="#FFFFFF" d="M113.4,6c-1-1.3-2.6-2.7-3.6-3.6c0-0.1,0-0.3,0-0.4c-0.2-1.1-0.8-2-1.7-2.5c-0.5-0.2-0.9-0.4-1.5-0.4
			c-0.4,0-0.8,0.1-1.2,0.2c-2.7-1.6-10-5.5-17.5-5.5c-8.7,0-15.7,6.5-15.7,14.4s7.1,14.4,15.7,14.4c4.7,0,9-1.9,12-5.1
			c0.1-0.1,0.3-0.3,0.4-0.5c0.3-0.4,0.7-0.9,1-1.3c1-1.3,2-2.1,3.5-2.1l1.8,0c2.3,0,3.5-0.1,4.4-0.5c0.9-0.4,2.7-1.8,3.2-3.7
			C114.4,8.2,114.1,7,113.4,6z"/>
		<path fill="#B7B7B7" d="M112.4,6.8c-1.1-1.4-2.9-3.1-3.9-3.9c0.1-0.3,0.1-0.6,0-0.9c-0.1-0.5-0.5-1-1-1.3
			c-0.3-0.1-0.6-0.2-0.9-0.2c-0.1,0-0.2,0-0.3,0c0,0-0.1,0-0.1,0c-0.1,0-0.1,0-0.2,0c0,0-0.1,0-0.1,0c-0.1,0-0.1,0-0.2,0.1
			c0,0-0.1,0-0.1,0.1c0,0-0.1,0-0.1,0.1c0,0,0,0,0,0c-1.9-1.2-9.5-5.6-17.4-5.6c-5.6,0-10.5,2.9-12.9,7.2l-0.1,0.2
			c-1,1.6-1.4,3.5-1.4,5.7c0,0.2,0,0.4,0,0.7c0,0,0,0,0,0.1c0.4,6.5,6,11.9,13.1,12.3l0.3,0c0.1,0,0.3,0,0.4,0l0.1,0v0
			c0.2,0,0.4,0,0.6,0c0.2,0,0.4,0,0.6,0l0,0l0.1,0c0.4,0,0.7-0.1,1.1-0.1l0.1,0c3.1-0.3,6.2-1.7,8.6-4c0,0,0,0,0,0
			c0.2-0.2,0.3-0.3,0.5-0.5c0,0,0,0,0,0c0.1-0.1,0.3-0.3,0.4-0.4c0.3-0.4,0.6-0.8,0.9-1.2l0,0c1.1-1.4,2.3-2.7,4.6-2.7l1.8,0
			c2.1,0,3.2-0.1,3.8-0.4c0.6-0.3,2.1-1.3,2.5-2.9C113.1,8.3,112.9,7.5,112.4,6.8z M87.4,19.7C87.5,17,86.8,8.4,76.6,2.7
			c2.2-3.5,6.4-5.9,11.2-5.9c1.1,0,2.2,0.1,3.3,0.3c1.6,12.4-1.2,20.8-1.9,22.7c-0.4,0-0.9,0.1-1.3,0.1
			C87.7,19.7,87.6,19.7,87.4,19.7z M109.7,10.5c-0.4,0.2-2.4,0.2-3.1,0.2l-1.8,0c-1.5,0-2.7,0.5-3.7,1.1c0.6-3.7,0.3-8.2-3-12.8
			c3.3,1.3,5.7,2.8,6.5,3.3c0.8,0.5,1.6,1,2.4,1.6c1.2,0.8,2.2,1.9,3.2,2.9c0.1,0.2,0.3,0.3,0.4,0.5c0,0,0.4,0.4,0.4,0.5
			c-0.2,0.3-0.3,0.7-0.2,1c0,0.2,0.1,0.4,0.2,0.6c0,0,0,0.1,0,0.1C110.6,9.9,110,10.3,109.7,10.5z"/>
		<g>
			<circle fill="#B7B7B7" cx="107.6" cy="7.3" r="0.4"/>
			<path fill="#B7B7B7" d="M106.9,4.8c-1.2,0-2.2,1-2.2,2.2s1,2.2,2.2,2.2c1.2,0,2.2-1,2.2-2.2C109.1,5.7,108.1,4.8,106.9,4.8z
				 M107.6,8.2c-0.5,0-0.9-0.4-0.9-0.9c0-0.5,0.4-0.9,0.9-0.9c0.5,0,0.9,0.4,0.9,0.9C108.5,7.8,108.1,8.2,107.6,8.2z"/>
		</g>
	</g>
	<path fill="#B7B7B7" d="M177.3,6.9C177.3,6.9,177.3,6.9,177.3,6.9c-2.8,0-4.8,2-4.8,4.8v8.9h1.5v-5.5c0.9,0.8,2.1,1.3,3.5,1.3
		c2.5,0,4.5-2,4.5-4.8C182.1,8.9,180.2,6.9,177.3,6.9z M177.2,15c-1.8,0-3.1-1.5-3.1-3.4c0-1.4,0.6-2.5,1.7-3.1c0,0,0,0,0,0
		c0,0,0,0,0,0c0.4-0.2,0.9-0.3,1.4-0.3c2,0,3.2,1.5,3.2,3.4C180.5,13.6,179.2,15,177.2,15z M211.7,8.3c-0.9-0.8-2.1-1.3-3.5-1.3
		c-2.5,0-4.5,2-4.5,4.8c0,2.7,1.9,4.8,4.8,4.8c0,0,0.1,0,0.1,0c1.3,0,2.4-0.5,3.2-1.2v0.9h1.5v-4.5v-0.2V1.8h-1.5L211.7,8.3
		L211.7,8.3z M210,14.8C209.9,14.8,209.9,14.8,210,14.8C209.9,14.8,209.9,14.8,210,14.8c-0.4,0.2-0.9,0.3-1.4,0.3
		c-1.9,0-3.2-1.5-3.2-3.4c0-1.9,1.3-3.4,3.2-3.4c1.8,0,3.1,1.5,3.1,3.4C211.6,13.1,211.1,14.2,210,14.8z M146.8,10.9
		c-1.2-0.2-2.3-0.6-2.3-1.3c0-0.9,0.9-1.3,1.8-1.3c0.9,0,1.5,0.4,1.9,1.1l1.3-0.8c-0.6-1.2-1.8-1.6-3.1-1.6c-1.7,0-3.4,0.9-3.4,2.7
		c0,1.9,1.5,2.2,3.2,2.6c1,0.2,1.9,0.5,1.9,1.4c0,1-1,1.4-2,1.4c-1.1,0-1.7-0.5-2.3-1.2l-1.2,0.9c0.9,1.3,2,1.7,3.5,1.7
		c1.8,0,3.6-0.8,3.6-2.8C149.8,11.8,148.4,11.2,146.8,10.9z M122.9,6.9C122.8,6.9,122.8,6.9,122.9,6.9c-2.8,0-4.8,2-4.8,4.8v8.9h1.5
		v-5.5c0.9,0.8,2.1,1.3,3.5,1.3c2.5,0,4.5-2,4.5-4.8C127.6,8.9,125.7,6.9,122.9,6.9z M122.8,15c-1.8,0-3.1-1.5-3.1-3.4
		c0-1.4,0.6-2.5,1.7-3.1c0,0,0,0,0,0c0,0,0,0,0,0c0.4-0.2,0.9-0.3,1.4-0.3c2,0,3.2,1.5,3.2,3.4S124.7,15,122.8,15z M129.8,16.2h1.5
		V1.6h-1.5V16.2z M155.5,15c-1.3,0-1.4-0.9-1.4-2.1V8.4h2.7V7.2h-2.7V4.6h-1.5v2.6h-2v1.3h2v5c0,1.9,0.3,3,2.5,3
		c0.6,0,1.2-0.1,1.8-0.3l-0.1-1.4C156.4,15,155.9,15,155.5,15z M198.4,6.9c-1.5,0-2.6,0.8-3,1.7h0c0-0.5,0-1,0-1.5h-1.4
		c0,0.6,0.1,1.3,0.1,2.1v6.9h1.5v-4.4c0-2.1,0.8-3.5,2.8-3.5c1.4,0,2.1,0.9,2.1,2.5v5.4h1.5v-5.6C201.8,8.4,200.8,6.9,198.4,6.9z
		 M158.8,16.2h1.5v-9h-1.5V16.2z M167.5,8.3c0.9,0,1.6,0.3,2.3,1.1l1.2-1.1c-0.9-1-2.1-1.4-3.5-1.4c-2.8,0-4.7,2-4.7,4.8
		c0,2.8,1.9,4.8,4.7,4.8c1.3,0,2.5-0.4,3.4-1.4l-1.1-1.1c-0.6,0.8-1.3,1.1-2.3,1.1c-1.8,0-3.1-1.5-3.1-3.4S165.4,8.3,167.5,8.3z
		 M159.6,2.5c-0.6,0-1.1,0.5-1.1,1.1c0,0.6,0.5,1.1,1.1,1.1c0.6,0,1.1-0.5,1.1-1.1C160.7,3,160.2,2.5,159.6,2.5z M219.1,7
		c-1.3,0-2.7,0.4-3.6,1.4l0.9,1c0.7-0.7,1.7-1,2.7-1c1.4,0,2.2,0.7,2.2,2v0.3h-0.6c-2.2,0-5.7,0.2-5.7,3.2c0,1.8,1.5,2.7,3.4,2.7
		c0,0,0,0,0,0l0,0c0,0,1.6,0.1,2.9-0.7v0.5h1.5v-3.5v-1.2v-0.7C222.9,8.2,221.8,7,219.1,7z M221.4,12.5c0,1.5-0.9,2.7-2.7,2.7
		c-1.1,0-2-0.4-2-1.6c0-1.2,1.2-1.7,3.1-1.7h1.5V12.5z M187.9,7c-1.3,0-2.7,0.4-3.6,1.4l0.9,1c0.7-0.7,1.7-1,2.7-1
		c1.4,0,2.2,0.7,2.2,2v0.3h-0.6c-2.2,0-5.7,0.2-5.7,3.2c0,1.8,1.5,2.7,3.4,2.7c0,0,0,0,0,0l0,0c0,0,1.6,0.1,2.9-0.7v0.5h1.5v-3.5
		v-1.2v-0.7C191.7,8.2,190.5,7,187.9,7z M190.1,12.5c0,1.5-0.9,2.7-2.7,2.7c-1.1,0-2-0.4-2-1.6c0-1.2,1.2-1.7,3.1-1.7h1.5V12.5z
		 M137.4,7c-1.3,0-2.7,0.4-3.6,1.4l0.9,1c0.7-0.7,1.7-1,2.7-1c1.4,0,2.2,0.7,2.2,2v0.3h-0.6c-2.2,0-5.7,0.2-5.7,3.2
		c0,1.8,1.5,2.7,3.4,2.7c0,0,0,0,0,0l0,0c0,0,1.6,0.1,2.9-0.7v0.5h1.5v-3.5v-1.2v-0.7C141.2,8.2,140.1,7,137.4,7z M139.7,12.5
		c0,1.5-0.9,2.7-2.7,2.7c-1.1,0-2-0.4-2-1.6c0-1.2,1.2-1.7,3.1-1.7h1.5V12.5z"/>
</g>
</svg>
